<svg xmlns="http://www.w3.org/2000/svg" width="512" height="512" viewBox="0 0 135.47 135.47"><rect width="135.47" height="135.47" fill="#201716" ry="17.352"/><path fill="#209618" d="M47.826 38.33v4.16q-1.992-1.855-4.258-2.773-2.246-.918-4.785-.918-5 0-7.656 3.066-2.656 3.047-2.656 8.828 0 5.762 2.656 8.828 2.656 3.047 7.656 3.047 2.54 0 4.785-.918 2.266-.918 4.258-2.773v4.121q-2.07 1.406-4.394 2.11-2.305.703-4.883.703-6.621 0-10.43-4.043-3.809-4.063-3.809-11.074 0-7.032 3.809-11.074 3.808-4.063 10.43-4.063 2.617 0 4.922.703 2.324.684 4.355 2.07zm19.922 13.242q1.27.43 2.46 1.836 1.212 1.406 2.423 3.867l4.004 7.969h-4.239l-3.73-7.48q-1.445-2.93-2.813-3.887-1.347-.957-3.691-.957h-4.297v12.324H53.92v-29.16h8.906q5 0 7.46 2.09 2.462 2.09 2.462 6.308 0 2.754-1.29 4.57-1.269 1.817-3.71 2.52zm-9.883-12.246v10.352h4.961q2.852 0 4.297-1.309 1.465-1.328 1.465-3.886t-1.465-3.848q-1.445-1.309-4.297-1.309zm16.895-3.242h24.668v3.32H89.076v25.84h-3.965v-25.84H74.76z" aria-label="CRT" style="shape-inside:url(#rect4917);white-space:pre" transform="translate(-38.867 -20.431) scale(1.7149)"/></svg>